<svg xmlns="http://www.w3.org/2000/svg" viewBox="0 0 100 100" width="20" height="20">
  <g transform="translate(0,7.85) scale(1.005,1.005)">
    <path
      d="m 50,0.61801 c -26.953,0 -48.80801,17.256 -48.80801,38.555 0,13.68101 9.05201,25.69301 22.64601,32.54901 l -4.599,17.167 c -0.176,0.527 -0.03,1.085 0.352,1.465 0.263,0.265 0.614,0.411 0.995,0.411 0.294,0 0.586,-0.117 0.85,-0.322 l 19.775,-13.36 c 2.872,0.41 5.802,0.644 8.789,0.644 26.953,0 48.81,-17.255 48.81,-38.55401 0,-21.299 -21.857,-38.555 -48.81,-38.555"
      style="fill:#3c1e1e;fill-opacity:1;fill-rule:nonzero;stroke:none"
    />
  </g>
</svg>